<svg enable-background="new 0 0 140 140" height="512" viewBox="0 0 140 140" width="512" xmlns="http://www.w3.org/2000/svg"><path d="m69.9080658 46.1781235s-4.872406 6.808651-5.0161438 8.6772881c-.1437454 1.8686333 8.6244659 4.8871994 10.3493652 5.3184242 1.7248917.431221 6.2332611 1.6530228 7.3210602 2.5873413s.4449921 1.0389862 2.3814697 0c1.9364777-1.03899 2.371727-1.0061874 2.371727-1.7248955 0-.7187042-3.3423843-2.0484085-4.905365-2.3178749-1.5629882-.2694664-12.5021133-12.5402832-12.5021133-12.5402832z" fill="#f7be56"/><path d="m88.2833176 33.7650757c-.1111603.8360748-1.1408005.3047943-1.1408005.3047943s-.4942551.2676888-.3789215 1.0255127c.1112061.7619209-.2306595.4983292-.2306595.4983292s-.1111603.1894608-.0370026.3418465c.0782242.1523819.0782242.3418465-.3707352.5312805-.4488525.1894646-.008194.7619476-.008194.7619476.1523895 1.2190742-1.8286591.7248688-2.5535278 1.0666885-.7207413.3418465-1.4702988 2.5740891-1.4702988 2.5740891 3.4183655 4.9175453 2.882988 7.47929 1.5074081 12.5945168-1.3797531 5.1152267-3.0106812 15.4733734-3.0106812 15.4733734-3.0312424.5518951-5.3293762.7042847-7.0673904.6136627-5.8977814-.3047714-5.3623505-3.4266357-5.3623505-3.4266357s.9884109-1.9810181.8895721-4.6580696c-.0988464-2.6729317.0988388-13.2740631 1.2891541-17.2402229 1.1902161-3.9620361 6.4867096-6.313736 6.4867096-6.313736s.6877594-2.3187408.4570999-3.574894c-.2264938-1.2561493-1.6350479-3.9990902-.4570999-7.4998531 1.1819687-3.5048847 3.9990845-1.9439659 6.3590088-1.9810429 2.3599167-.0370541 2.6275787 1.4868126 2.6275787 1.4868126 1.4385757 1.3512802.7663803 2.1071148 1.0121689 3.9420891 0 0 .096199.6108952.1728363.9221153.6095888 2.4752502 1.4014513 1.7213439 1.2861254 2.5573959z" fill="#fcd462"/><path d="m84.7109604 24.3243237c-.6590042-.4393806-4.8770981-1.5817585-8.1284409 1.2302341-3.2514038 2.8120174-.7030029 9.6223717.4393539 9.7541695 1.1424026.1318207 2.7680511-1.8453789 2.8998718-3.2953148.1318207-1.4499378.659111-1.4060211 2.328743-1.537817 1.281517-.1011791 1.0099335 1.7131252.8144608 2.5620747-.0503769.2186203.1158371.4256783.3401642.4256783.176918 0 .3259811-.130867.3463974-.3066292.0529861-.4558945.1490097-1.3851051.2051239-2.5493279.0804367-1.6696148.6664429-1.845377.3149719-2.6801968-.3514786-.8348198-.4832993-1.1863194 0-1.7135544.4832916-.5272617 1.7634048.2563286 1.7634048.2563286.137703-1.1057282-.6649398-1.7062912-1.3240508-2.1456451z" fill="#4d5c7d"/><path d="m83.6005859 53.4640808c-1.3797531 5.1152267-3.0106812 15.4733734-3.0106812 15.4733734l-7.0673904.6136627c-5.8977814-.3047714-5.3623505-3.4266357-5.3623505-3.4266357s.9884109-1.9810181.8895721-4.6580696c-.0988464-2.6729317.0988388-13.2740631 1.2891541-17.2402229 1.1902161-3.9620361 6.4867096-6.313736 6.4867096-6.313736l5.2675781 2.9571114c3.4183656 4.9175453 2.8829881 7.47929 1.5074082 12.5945167z" fill="#27a2db"/><path d="m92.4842911 103.2467499-1.3137817-15.7645798c-.0385284-.4630432-.1801682-.9116364-.4144897-1.3128967l-8.2440338-14.1201248-1.921257-3.1106491-6.4041977 1.921257 1.6467743 8.9658813 10.0637512 10.1552658s-1.280838 5.2148743 1.646843 11.9850082c2.9276123 6.7702026 3.0191269 10.1284714 3.0191269 10.1284714h3.1105881l.4017334-3.5556259c-.0000002 0-1.316643-1.9983902-1.591057-5.2920074z" fill="#fcd462"/><path d="m92.4035187 102.2781067h-4.7285309c2.7932892 6.5561676 2.8880081 9.8162613 2.8880081 9.8162613h3.1106262l.4017487-3.5555649s-1.316658-1.998436-1.5911102-5.2920151c-.0218735-.2621841-.0494233-.5928726-.0807419-.9686813z" fill="#3ea69b"/><path d="m67.0036774 73.741066c-4.1891518 7.2262878-1.8851166 15.1856079-1.8851166 15.1856079s-6.0741997-.9425201-9.8444328-.6283493c-3.7702332.3141785-11.8342972 1.1520233-11.8342972 1.1520233l-.7330971 3.8749084 4.084404-.1046753c5.7467995 1.2865677 16.4056206 1.3435745 20.075676 1.3220291.7896271-.00457 1.5068359-.4458618 1.8726349-1.1457443l7.0938568-13.571228s-4.6404725-13.310791-8.829628-6.0845718z" fill="#fcd462"/><path d="m53.9154892 88.417038c-4.0618324.3669815-10.4756432 1.0333023-10.4756432 1.0333023l-.7331123 3.8749619 4.0843582-.1047211c2.001255.4480286 4.530899.7764511 7.1243973 1.01754z" fill="#44c4a1"/><path d="m80.1642761 41.0993576c-2.8257294-2.3735199-7.1940384-.5719719-7.5971222 3.0962486-.0053635.0488129-.0103912.0980797-.0150757.1478119-.4680557 4.9730988.4095535 6.6112938 3.2763977 7.0208435s6.1432419.5850716 7.3133774-1.2286453c.9655304-1.496563 1.1343613-5.5823631-2.9775772-9.0362587z" fill="#fcd462"/><path d="m90.2501831 59.6226425s1.0428314-.1148338.851738-.7016487c-.1014099-.3115044-.610321-.3227577-.8310776-.2975197.2471008-.1003494.5114975-.2937851.4024506-.6521454-.1904907-.6258507-.9231491-.3024826-1.2521515-.2870216-3.452095.5096512-6.579361.1774826-9.1681824-1.5503731l.7343674-9.9558105s-1.1898117 2.8229027-1.7085037 5.2035828l-4.7183762-2.9332542s-.7029953 6.6788597-.4218063 9.1395035 4.9212875 2.7418594 8.7176666 3.5151901c3.7963791.7733345 6.3273315.7733345 6.7491913.7733345 0 0 .7914429.0888901 1.1423416-.0703926.5047379-.2291145.5141068-1.1064491-.7159576-1.0370941 0 0 1.0732574.1316643 1.2030563-.1119118.155571-.2919465.3345947-1.1968232-.9847565-1.0344392z" fill="#fcd462"/><path d="m68.3878098 65.5792618s-1.2481079 3.1267548-1.9934464 4.8568573-.2710342 6.1343765-.2710342 6.1343765l9.2230072 4.1170578h1.7538147s1.8972321-2.6858597 4.6753159-3.9137802 1.2874069-6.3376541 1.2874069-6.3376541l-2.2517853-2.8576736c0-.0000001-7.8550263 2.390686-12.4232788-1.9991837z" fill="#4d5c7d"/><path d="m80.593071 51.5230675.3088302-4.1868668.1798478 4.1868668z" fill="#dc8744"/><path d="m100.4158249 109.6891785c-1.2612.7062912-4.0556946-.2036133-5.3198166-1.1637955-.3309097-.2513275-.7971115-.2318726-1.0759888.0761108-.620903.685585-1.891861 1.6649933-4.2015991 1.897644-.4718857.0475311-.7910309.5062714-.6933441.9703827l.7888641 3.7470093s.4580994 1.0728531 2.9508438.7398987c2.8324356-.3783264 3.6848755-2.0266953 5.8957748-2.579422 2.2109528-.5527496 5.5244446-3.0122604 5.5244446-4.3633804.0000001-1.3511429-2.3337707-.1842575-3.8691787.6755524z" fill="#d5d6db"/><path d="m104.2838974 109.0150146c0 1.3508911-3.0682907 4.0526581-5.2799988 4.6045227-2.2116089.5519028-3.0724182 2.1498947-5.8977356 2.5782166-2.8253174.4324417-3.1918716-.980217-3.1918716-.980217l-.0741577-.3459396c.3006516.3871155 1.0873566.9554749 3.0189285.6630783 2.8253174-.4283447 3.6860809-2.0263443 5.8936615-2.5782166 2.1416245-.5354004 5.0863419-3.0847855 5.2758255-4.4727325.1606293.0905991.2553482.2594681.2553482.5312881z" fill="#4d5c7d"/><path d="m38.5566673 97.1795654c.3923836-1.3912277 3.0117912-2.7238388 4.58461-2.9387589.411705-.0562744.7276001-.3996811.707016-.8146591-.0457344-.9238205.1604195-2.5150681 1.6291466-4.3128128.3000603-.3672791.201355-.9173279-.1958961-1.1764374l-3.2073517-2.0917206s-.9364014-.738266-2.6300735 1.5633774c-1.693634 2.3016129-1.1725082 4.0386887-2.3450165 5.9928665-1.1725235 1.9542389-1.7560577 6.0363617-.8006706 6.9917526.9554023.9553987 1.7805175-1.5199431 2.2582358-3.2136077z" fill="#d5d6db"/><path d="m36.298233 100.3914108c-.9552269-.9552231-.6960487-5.0352783.4776344-6.989418 1.1735916-1.9540939.6523209-3.6927338 2.3472519-5.9934006 1.6920204-2.3035812 2.9501114-1.5638733 2.9501114-1.5638733l.2970581.1921768c-.4863243-.061142-1.4445.0932465-2.6035728 1.6658401-1.694912 2.3006821-1.1736107 4.0392838-2.3443756 5.9905167-1.1357651 1.8929443-1.4153137 5.7778625-.5678749 6.8932724-.1776428.0495225-.3640289-.0029144-.5562325-.1951141z" fill="#4d5c7d"/></svg>